<?xml version="1.0" ?><svg height="24px" id="Layer_1" style="enable-background:new 0 0 24 24;" version="1.1" viewBox="0 0 24 24" width="24px" xml:space="preserve" xmlns="http://www.w3.org/2000/svg" xmlns:xlink="http://www.w3.org/1999/xlink"><path d="M16,21c-3.2382813,0-4.1240234-4.4765625-4.980957-8.8056641C10.3847656,8.9892578,9.5952148,5,8,5  c-1.4946289,0-3.0424805,4.4384766-3.703125,6.3330078C4.1679688,11.703125,4.0488281,12.0449219,3.9389648,12.34375  l-1.8779297-0.6875c0.1064453-0.2910156,0.222168-0.6230469,0.347168-0.9814453C3.5375977,7.4355469,5.0844727,3,8,3  c3.2382813,0,4.1240234,4.4765625,4.980957,8.8056641C13.6152344,15.0107422,14.4047852,19,16,19  c1.4375,0,2.7060547-3.5644531,3.5454102-5.9228516c0.1782227-0.5009766,0.3505859-0.9853516,0.5195313-1.4306641  l1.8701172,0.7070313c-0.1640625,0.4345703-0.331543,0.90625-0.5058594,1.3945313C20.2197266,17.1474609,18.8486328,21,16,21z"/></svg>